<mxfile host="app.diagrams.net" modified="2023-04-19T05:15:46.588Z" agent="Mozilla/5.0 (Windows NT 10.0; Win64; x64) AppleWebKit/537.36 (KHTML, like Gecko) Chrome/112.0.0.0 Safari/537.36" version="21.1.9" etag="0UsTTl-c2asNZIxrj0RR" type="github">
  <diagram name="Страница 1" id="_4iIt0Ei7678yWGYaFOf">
    <mxGraphModel>
      <root>
        <mxCell id="0" />
        <mxCell id="1" parent="0" />
      </root>
    </mxGraphModel>
  </diagram>
</mxfile>
